<?xml version="1.0" standalone="no"?>
<!DOCTYPE svg PUBLIC "-//W3C//DTD SVG 20010904//EN"
 "http://www.w3.org/TR/2001/REC-SVG-20010904/DTD/svg10.dtd">
<svg version="1.0" xmlns="http://www.w3.org/2000/svg"
 width="250.000000pt" height="46.000000pt" viewBox="0 0 250.000000 46.000000"
 preserveAspectRatio="xMidYMid meet">

<g transform="translate(0.000000,46.000000) scale(0.100000,-0.100000)"
fill="#000000" stroke="none">
<path d="M177 443 c-4 -3 -7 -73 -7 -154 0 -121 -3 -150 -16 -163 -20 -20 -53
-20 -82 0 -13 9 -24 14 -26 13 -20 -30 -36 -60 -36 -68 0 -17 68 -41 117 -41
60 0 109 28 129 75 10 25 14 77 14 190 l0 155 -43 0 c-24 0 -47 -3 -50 -7z"/>
<path d="M423 393 l-93 -55 0 -106 0 -107 93 -52 94 -53 92 51 92 52 -3 110
-3 111 -45 26 c-25 14 -65 38 -90 52 l-45 26 -92 -55z m167 -41 l65 -38 0 -83
0 -83 -70 -39 -70 -38 -65 37 -65 38 -3 85 -3 84 63 37 c35 21 68 38 73 38 6
0 39 -17 75 -38z"/>
<path d="M468 308 c-36 -21 -38 -24 -38 -75 0 -51 1 -54 41 -79 l42 -26 46 25
c45 25 46 27 49 79 2 52 2 53 -37 76 -49 27 -56 27 -103 0z"/>
<path d="M780 445 c-2 -1 -3 -302 -1 -353 l1 -63 43 3 42 3 3 83 3 82 89 0 90
0 0 -86 0 -85 48 3 47 3 3 203 2 202 -27 1 c-16 0 -38 2 -50 3 -22 3 -23 0
-23 -81 l0 -83 -90 0 -90 0 0 80 c0 57 -4 80 -12 81 -18 2 -78 5 -78 4z"/>
<path d="M1210 237 l0 -208 48 3 47 3 3 119 3 119 90 -121 90 -122 45 0 44 0
-2 206 -3 207 -42 1 -42 1 -3 -125 -3 -124 -93 126 -92 126 -45 -1 -45 -2 0
-208z"/>
<path d="M1650 238 l0 -208 45 0 44 0 3 123 3 122 90 -120 90 -120 48 -3 47
-3 0 208 0 208 -47 -1 -48 -1 -5 -119 -5 -119 -87 119 -88 119 -45 1 -45 1 0
-207z"/>
<path d="M2090 442 c0 -1 34 -53 75 -115 l75 -112 0 -92 0 -93 45 0 45 0 0 86
0 85 75 116 c41 64 75 120 75 124 0 4 -23 7 -51 7 -40 -1 -52 -6 -61 -22 -6
-12 -26 -45 -45 -75 l-35 -54 -43 69 -44 69 -55 5 c-31 3 -56 4 -56 2z"/>
</g>
</svg>
